# xmcd CD database file
#
# Track frame offsets:
#	150
#	39559
#	71784
#	106286
#	139519
#	176820
#	193730
#	228785
#
# Disc length: 3248 seconds
#
# Revision: 2
# Processed by: cddbd v1.5.2PL0 Copyright (c) Steve Scherf et al.
# Submitted via: CDex 1.50
#
DISCID=6c0cae08
DTITLE=Olivia Trio Trummer - Nach Norden
DYEAR=2006
DGENRE=Jazz
TTITLE0=Ethernal dance
TTITLE1=Leaving earth
TTITLE2=Rostock
TTITLE3=Nach Norden
TTITLE4=Last tango
TTITLE5=Restless
TTITLE6=A hint of sorrow
TTITLE7=A hint of sorrow - soloversion
EXTD=YEAR: 2006
EXTT0=
EXTT1=
EXTT2=
EXTT3=
EXTT4=
EXTT5=
EXTT6=
EXTT7=
PLAYORDER=
